<?xml version="1.0" encoding="UTF-8"?><svg id="Layer_2" xmlns="http://www.w3.org/2000/svg" width="100" height="100" viewBox="0 0 100 100"><defs><style>.cls-1{fill:#d0cac3;}.cls-1,.cls-2{stroke-width:0px;}.cls-2{fill:#04070e;}</style></defs><g id="Layer_1-2"><path class="cls-1" d="M100,50c0,27.62-22.39,50-50,50S0,77.61,0,50,22.39,0,50,0s50,22.38,50,50Z"/><path class="cls-2" d="M39.56,52.56l-2.02-3.77,1.34-.81c5.17-3.14,9.9-6.33,14.19-9.56,4.28-3.23,6.43-6.92,6.43-11.05,0-2.78-1.03-5.11-3.08-7-2.06-1.89-4.47-2.83-7.24-2.83-6.44,0-13.23,4-20.39,11.99l-3.35-2.56c7.45-11.32,16.57-16.97,27.34-16.97,4.76,0,8.79,1.17,12.12,3.5,3.77,2.61,5.66,6.15,5.66,10.64,0,3.23-1.35,6.37-4.04,9.43-1.53,1.8-4.23,4.13-8.08,7l-1.62,1.21c.72-.09,1.57-.13,2.56-.13,4.94,0,9,1.89,12.19,5.66,3.19,3.77,4.78,8.17,4.78,13.2,0,8.53-3.59,15.67-10.77,21.42-6.65,5.39-14.33,8.08-23.03,8.08-7.99,0-14.28-1.75-18.86-5.25l2.43-3.37c5.39,2.61,10.28,3.91,14.68,3.91,6.37,0,12.05-2.11,17.03-6.33,4.99-4.22,7.47-9.47,7.47-15.75,0-4.13-1.25-7.66-3.77-10.58-2.52-2.92-5.79-4.37-9.83-4.37-3.68,0-7.72,1.44-12.12,4.31Z"/></g></svg>