<?xml version="1.0" encoding="UTF-8"?><svg id="Layer_2" xmlns="http://www.w3.org/2000/svg" width="100" height="100" viewBox="0 0 100 100"><defs><style>.cls-1{fill:#d0cac3;}.cls-1,.cls-2{stroke-width:0px;}.cls-2{fill:#04070e;}</style></defs><g id="Layer_1-2"><path class="cls-1" d="M100,50c0,27.62-22.39,50-50,50S0,77.61,0,50,22.39,0,50,0s50,22.38,50,50Z"/><path class="cls-2" d="M53.49,90h-11.64v-1.24c0-7.4,2.33-16.66,6.98-27.81,7.04-16.8,13.52-29.67,19.45-38.62l.82-1.23h-27.26c-3.93,0-6.92.82-8.97,2.46-2.06,1.64-3.58,4.39-4.59,8.22h-4.52l4.93-21.78h2.88c1.73.91,4.74,1.37,9.04,1.37h35.61v6.16c-1.28,1.83-2.92,4.75-4.93,8.77-3.84,7.49-7.35,16.21-10.55,26.16-4.75,14.7-7.17,27.21-7.26,37.53Z"/></g></svg>