<?xml version="1.0" encoding="UTF-8"?><svg id="Layer_2" xmlns="http://www.w3.org/2000/svg" width="100" height="100" viewBox="0 0 100 100"><defs><style>.cls-1{fill:#d0cac3;}.cls-1,.cls-2{stroke-width:0px;}.cls-2{fill:#04070e;}</style></defs><g id="Layer_1-2"><path class="cls-1" d="M100,50c0,27.62-22.39,50-50,50S0,77.61,0,50,22.39,0,50,0s50,22.38,50,50Z"/><path class="cls-2" d="M34.96,11.35h28.94c3.75,0,5.99-.45,6.7-1.35h4.16l-2.42,10.92h-35.31l-3.41,15.79c5.13-2.07,9.67-3.1,13.62-3.1,7.73,0,14.25,2.59,19.56,7.76,5.3,5.17,7.96,11.62,7.96,19.36,0,9-3.46,16.24-10.39,21.72-6.38,5.04-14.16,7.55-23.34,7.55-5.39,0-10.66-.81-15.79-2.43l1.62-4.05c4.32,1.17,8.14,1.75,11.47,1.75,6.65,0,12.48-2.18,17.47-6.54,4.99-4.36,7.49-9.83,7.49-16.39,0-5.67-1.84-10.32-5.53-13.96-3.69-3.65-8.37-5.47-14.03-5.47-5.21,0-10.07,1.8-14.57,5.4l-2.7-.54,8.5-36.42Z"/></g></svg>