<?xml version="1.0" encoding="UTF-8"?><svg id="Layer_2" xmlns="http://www.w3.org/2000/svg" width="100" height="100" viewBox="0 0 100 100"><defs><style>.cls-1{fill:#d0cac3;}.cls-1,.cls-2{stroke-width:0px;}.cls-2{fill:#04070e;}</style></defs><g id="Layer_1-2"><path class="cls-1" d="M100,50c0,27.62-22.39,50-50,50S0,77.61,0,50,22.39,0,50,0s50,22.38,50,50Z"/><path class="cls-2" d="M64.27,67.36v6.72c0,7.68,2.7,11.53,8.09,11.53h2.33v4.39h-32.66v-4.39h2.61c5.3,0,7.96-3.8,7.96-11.39v-6.86H19.81v-6.86L54.39,10h9.88v51.59h.82c3.38,0,5.85-2.61,7.41-7.82h4.12l-1.92,13.58h-10.42ZM52.6,61.59V20.13l-27.89,41.46h27.89Z"/></g></svg>