<?xml version="1.0" encoding="UTF-8"?><svg id="Layer_2" xmlns="http://www.w3.org/2000/svg" width="100" height="100" viewBox="0 0 100 100"><defs><style>.cls-1{fill:#d0cac3;}.cls-1,.cls-2{stroke-width:0px;}.cls-2{fill:#04070e;}</style></defs><g id="Layer_1-2"><path class="cls-1" d="M100,50c0,27.62-22.39,50-50,50S0,77.61,0,50,22.39,0,50,0s50,22.38,50,50Z"/><path class="cls-2" d="M36.58,44.67c5.93-5.58,11.91-8.36,17.94-8.36,6.56,0,11.83,2.61,15.79,7.82,3.68,4.77,5.53,10.52,5.53,17.27,0,7.38-2.16,13.85-6.47,19.42-4.77,6.11-10.7,9.17-17.81,9.17-8.55,0-15.38-3.69-20.5-11.06-4.59-6.48-6.88-14.17-6.88-23.07,0-9.44,2.61-18.14,7.82-26.1,5.21-7.96,12.18-13.6,20.91-16.93,4.95-1.89,10.17-2.84,15.65-2.84v4.18c-11.69.63-20.41,5.31-26.17,14.03-2.96,4.5-4.9,9.98-5.79,16.46ZM35.77,52.77c-.09,1.62-.13,3.24-.13,4.86,0,6.2,1.08,11.96,3.24,17.27,2.79,6.92,6.88,10.38,12.28,10.38,4.67,0,8.18-2.38,10.52-7.15,1.8-3.68,2.7-8.13,2.7-13.36,0-5.57-.86-10.34-2.56-14.3-2.34-5.4-5.94-8.09-10.79-8.09-5.93,0-11.02,3.46-15.24,10.39Z"/></g></svg>