<?xml version="1.0" encoding="UTF-8"?><svg id="Layer_2" xmlns="http://www.w3.org/2000/svg" width="100" height="100" viewBox="0 0 100 100"><defs><style>.cls-1{fill:#d0cac3;}.cls-1,.cls-2{stroke-width:0px;}.cls-2{fill:#04070e;}</style></defs><g id="Layer_1-2"><path class="cls-1" d="M100,50c0,27.62-22.39,50-50,50S0,77.61,0,50,22.39,0,50,0s50,22.38,50,50Z"/><path class="cls-2" d="M40.96,49.46l-1.75-1.21c-5.12-3.5-8.49-6.33-10.11-8.49-2.07-2.69-3.1-5.83-3.1-9.43,0-6.11,2.56-11.09,7.68-14.95,4.76-3.59,10.28-5.39,16.57-5.39,5.92,0,11.18,1.57,15.76,4.71,5.2,3.5,7.81,8.13,7.81,13.88,0,7-4.9,12.66-14.68,16.97,11.13,5.39,16.7,12.88,16.7,22.49,0,6.91-2.65,12.39-7.95,16.43-4.75,3.68-10.73,5.52-17.91,5.52-6.73,0-12.53-1.7-17.38-5.12-5.57-3.86-8.35-8.98-8.35-15.35s2.96-11.63,8.89-15.76c1.62-1.07,4.22-2.51,7.81-4.31ZM45.54,51.38c-8.08,3.68-12.11,9.47-12.11,17.36,0,5.11,1.63,9.22,4.92,12.31,3.28,3.1,7.47,4.64,12.59,4.64,4.57,0,8.46-1.23,11.65-3.7,3.19-2.46,4.78-5.89,4.78-10.28,0-6.63-4.37-12-13.1-16.12l-8.73-4.22ZM54.57,43.4c7.09-3.14,10.64-7.85,10.64-14.14,0-4.31-1.51-7.77-4.51-10.38-3.01-2.6-6.71-3.91-11.11-3.91-3.68,0-6.87.99-9.56,2.96-2.96,2.15-4.44,5.03-4.44,8.62,0,4.4,2.06,7.95,6.2,10.64.8.54,4.4,2.29,10.78,5.25l2.02.94Z"/></g></svg>