<?xml version="1.0" encoding="UTF-8"?><svg id="Layer_2" xmlns="http://www.w3.org/2000/svg" width="100" height="100" viewBox="0 0 100 100"><defs><style>.cls-1{fill:#d0cac3;}.cls-1,.cls-2{stroke-width:0px;}.cls-3{fill:none;stroke:#04070e;stroke-linecap:round;stroke-miterlimit:10;stroke-width:6px;}.cls-2{fill:#04070e;}</style></defs><g id="Layer_1-2"><path class="cls-1" d="M100,50c0,27.62-22.39,50-50,50S0,77.61,0,50,22.39,0,50,0s50,22.38,50,50Z"/><path class="cls-2" d="M45.59,54.65c-4.92,4.63-9.89,6.94-14.89,6.94-5.45,0-9.82-2.16-13.1-6.5-3.06-3.96-4.59-8.73-4.59-14.33,0-6.05,1.79-11.45,5.37-16.23,3.88-5.15,8.77-7.73,14.67-7.73,7.17,0,12.88,3.1,17.13,9.29,3.81,5.45,5.71,11.9,5.71,19.37,0,10.6-3.51,19.53-10.52,26.81-7.02,7.28-15.79,10.95-26.31,11.02v-3.47c3.21-.15,5.78-.52,7.73-1.12,10.74-3.28,17.02-11.31,18.8-24.07ZM46.27,47.93c.07-1.42.11-2.76.11-4.03,0-5.22-.89-10-2.69-14.33-2.39-5.75-5.82-8.62-10.3-8.62-3.89,0-6.75,1.98-8.62,5.94-1.49,3.06-2.24,6.76-2.24,11.08,0,4.63.71,8.58,2.13,11.87,1.94,4.48,4.93,6.72,8.96,6.72,4.92,0,9.14-2.87,12.65-8.62Z"/><line class="cls-3" x1="78.74" y1="35.87" x2="78.74" y2="64.24"/><line class="cls-3" x1="64.56" y1="50.05" x2="92.93" y2="50.05"/></g></svg>