<?xml version="1.0" encoding="UTF-8"?><svg id="Layer_2" xmlns="http://www.w3.org/2000/svg" width="100" height="100" viewBox="0 0 100 100"><defs><style>.cls-1{fill:#d0cac3;}.cls-1,.cls-2{stroke-width:0px;}.cls-2{fill:#04070e;}</style></defs><g id="Layer_1-2"><path class="cls-1" d="M100,50c0,27.62-22.39,50-50,50S0,77.61,0,50,22.39,0,50,0s50,22.38,50,50Z"/><path class="cls-2" d="M77.44,70.1l-5.9,19.9H22.55v-4.25c2.38-2.65,7.59-8,15.65-16.05,4.85-4.85,9.65-9.97,14.41-15.37,2.38-2.65,4.21-4.94,5.49-6.86,2.84-4.11,4.25-8.32,4.25-12.62s-1.3-7.91-3.91-11.11c-2.61-3.2-5.97-4.81-10.09-4.81-8.87,0-15.82,6-20.85,17.98l-4.39-1.65c5.95-16.83,15.32-25.25,28.13-25.25,6.31,0,11.69,2.15,16.12,6.45,4.44,4.3,6.66,9.6,6.66,15.92,0,8.05-4.62,15.92-13.86,23.6l-9.6,7.96c-6.13,5.13-11.21,9.93-15.23,14.41-.28.27-.83.92-1.65,1.92h25.52c3.93,0,6.91-.78,8.92-2.34,1.74-1.37,3.43-3.98,5.08-7.82h4.25Z"/></g></svg>