<?xml version="1.0" encoding="UTF-8"?><svg id="Layer_2" xmlns="http://www.w3.org/2000/svg" width="100" height="100" viewBox="0 0 100 100"><defs><style>.cls-1{fill:#04070e;}.cls-1,.cls-2{stroke-width:0px;}.cls-2{fill:#9cc497;}</style></defs><g id="Layer_1-2"><path class="cls-2" d="M100,50c0,27.62-22.38,50-50,50S0,77.61,0,50,22.38,0,50,0s50,22.38,50,50Z"/><path class="cls-1" d="M93.76,56.22c0,1.67-.64,3.16-1.94,4.5-1.29,1.33-2.77,2-4.44,2-2.66,0-4.62-1.25-5.87-3.75l-5.87-.25c-1.25,0-3.71.54-7.37,1.62-3.91,1.08-6.16,1.96-6.75,2.62-.92,1-1.66,3.33-2.25,7-.5,3-.75,5.21-.75,6.62,0,2.25.35,3.89,1.06,4.93.71,1.04,2.17,1.92,4.37,2.62,2.2.71,3.56,1.1,4.06,1.19.33,0,.87-.04,1.62-.12h1.5c1.08,0,2.21.17,3.37.5,1.67.5,2.37,1.17,2.12,2-1.17-.17-3.21.08-6.12.75l3.5,1.75c0,1-1.42,1.5-4.25,1.5-.75,0-1.77-.17-3.06-.5-1.29-.34-2.14-.5-2.56-.5h-1.62c-.08.83-.33,2.08-.75,3.75-1.42-.08-3.08-.92-5-2.5-1.92-1.58-3.12-2.37-3.62-2.37s-1.21.79-2.12,2.37c-.92,1.58-1.38,2.66-1.38,3.25-1.08-.58-2-1.67-2.75-3.25-.33-1.08-.71-2.17-1.12-3.25-.83.08-2.37,1.83-4.62,5.25h-.63c-.17-.25-.79-2-1.87-5.25-2.58-.83-5-1.25-7.25-1.25-1.08,0-2.75.25-5,.75l-3.5-.25c.5-.5,1.96-1.46,4.37-2.87,2.83-1.67,5-2.5,6.5-2.5.25,0,.58.04,1,.12.41.09.75.12,1,.12.58,0,1.52-.31,2.81-.94,1.29-.62,2.04-1.19,2.25-1.68.21-.5.32-1.79.32-3.88,0-4.75-1.25-8.29-3.75-10.62-2.17-2.08-5.75-3.58-10.74-4.5-1.33,4.75-5.08,7.12-11.24,7.12-2,0-4-1.21-6-3.62-2-2.42-3-4.62-3-6.62,0-3.08,1.29-5.62,3.87-7.62-2.08-2.16-3.12-4.37-3.12-6.62,0-2.08.64-3.91,1.94-5.5,1.29-1.58,2.98-2.5,5.06-2.75-.17-2.66.71-4.5,2.62-5.5-.92-.91-1.37-2.54-1.37-4.87,0-2.75.92-5.04,2.75-6.87,1.83-1.83,4.12-2.75,6.87-2.75,3,0,5.46,1.04,7.37,3.12,2.42-8.24,7.62-12.37,15.61-12.37,4.16,0,7.83,1.67,10.99,5,1.17,1.25,1.75,1.92,1.75,2-1,0-.5-.19,1.5-.56,2-.38,3.45-.56,4.37-.56,3.25,0,6.12,1.21,8.62,3.62,2.16,2.17,3.66,4.91,4.5,8.24.58.08,1.5.33,2.75.75,1.83.92,2.75,2.5,2.75,4.75,0,.42-.34,1.21-1,2.37,5.33,3,7.99,7.16,7.99,12.49,0,1.5-.58,3.58-1.75,6.25,2.17,1.25,3.25,3.08,3.25,5.5ZM42.29,61.72v-1.62c0-1.91-.94-3.66-2.81-5.25-1.87-1.58-3.77-2.37-5.68-2.37-2.33,0-4.5.54-6.5,1.62,4.41-.25,9.41,2.29,14.99,7.62ZM40.05,46.23c-1.25-1.42-2.33-2.88-3.25-4.37-3.5.92-5.25,1.96-5.25,3.12,1-.08,2.46.11,4.37.56,1.91.46,3.29.69,4.12.69ZM47.67,42.36v-5.5c-2-.33-3.21-.5-3.62-.5v1.87l3.62,4.12ZM63.91,38.86c-1-.42-2.87-1.25-5.62-2.5v10.74c3.91-2.25,5.79-5,5.62-8.24ZM70.78,53.6l-2.75-3.37c-1.66,1.17-3.35,2.35-5.06,3.56-1.71,1.21-3.19,2.56-4.43,4.06,3.75-2,7.83-3.41,12.24-4.25Z"/></g></svg>