<?xml version="1.0" encoding="UTF-8"?><svg id="Layer_2" xmlns="http://www.w3.org/2000/svg" width="100" height="100" viewBox="0 0 100 100"><defs><style>.cls-1{fill:#f8a076;}.cls-1,.cls-2{stroke-width:0px;}.cls-2{fill:#04070e;}</style></defs><g id="Layer_1-2"><circle class="cls-1" cx="50" cy="50" r="50"/><path class="cls-2" d="M91.96,66.62c-3.74,8.91-11.16,13.37-22.28,13.37-2.04,0-4.25.25-6.62.76-3.56.76-5.35,1.83-5.35,3.19,0,.42.29.91.89,1.46.59.55,1.1.83,1.53.83-2.12,0-.68.06,4.33.19,5.01.13,8.15.19,9.42.19-7.38,4.33-19.73,6.32-37.04,5.98-5.69-.08-10.57-2.59-14.64-7.51-3.99-4.67-5.98-9.89-5.98-15.66,0-6.11,2.06-11.31,6.18-15.59,4.11-4.28,9.23-6.43,15.34-6.43,1.36,0,3.16.3,5.41.89,2.25.59,3.76.89,4.52.89,3.14,0,7.04-1.29,11.71-3.88,4.67-2.59,6.88-3.88,6.62-3.88-.85,8.91-3.82,14.89-8.91,17.95-3.65,2.12-5.47,4.2-5.47,6.24,0,1.27.76,2.29,2.29,3.06,1.19.59,2.5.89,3.95.89,2.21,0,4.37-1.36,6.49-4.07,2.12-2.72,3.05-5.18,2.8-7.38-.25-2.54-.08-5.6.51-9.16.17-1.02.78-2.27,1.84-3.75,1.06-1.49,2.02-2.4,2.87-2.74,0,.76-.28,2.04-.83,3.82-.55,1.78-.83,3.1-.83,3.95,0,1.87.51,3.31,1.53,4.33,1.53-.59,2.88-2.5,4.07-5.73,1.02-2.46,1.61-4.84,1.78-7.13-3.57-.17-6.98-1.78-10.25-4.84-3.27-3.06-4.9-6.37-4.9-9.93,0-.59.08-1.19.26-1.78.51.76,1.27,1.95,2.29,3.56,1.44,2.12,2.55,3.18,3.31,3.18,1.02,0,1.53-1.06,1.53-3.18,0-2.71-.72-5.18-2.16-7.38-1.61-2.63-3.69-3.95-6.24-3.95-1.19,0-2.97.64-5.34,1.91-2.38,1.27-4.54,1.91-6.49,1.91-.6,0-3.23-.77-7.89-2.29,8.23-1.36,12.35-2.59,12.35-3.69,0-2.88-5.64-4.84-16.93-5.86-1.11-.08-3.14-.25-6.11-.51.34-.42,2.76-.89,7.26-1.4,3.82-.42,6.49-.64,8.02-.64,20.2,0,33.01,9.8,38.44,29.41.93-.77,1.4-2.07,1.4-3.87,0-2.32-.68-5.25-2.04-8.78-.51-1.38-1.32-3.44-2.42-6.19,6.96,8.87,10.44,17.27,10.44,25.2,0,4.18-.98,7.97-2.93,11.38-1.27,2.3-3.65,5.24-7.13,8.83-3.48,3.58-5.86,6.35-7.13,8.31,4.67-1.27,7.72-2.25,9.17-2.93,3.22-1.44,6.15-3.61,8.78-6.49,0,1.1-.47,2.76-1.4,4.96ZM36.46,16.59c0,1.53-.85,2.5-2.54,2.93l-3.31.51c-1.19.59-2.93,2.93-5.22,7-.26-1.27-.64-3.05-1.15-5.35-.76.09-2.04.76-3.82,2.04-.76.59-2,1.48-3.69,2.67.51-3.05,2.21-6.15,5.09-9.29,3.05-3.48,6.03-5.22,8.91-5.22,3.82,0,5.73,1.57,5.73,4.71ZM58.61,28.3c0,1.44-.79,2.65-2.36,3.63-1.57.98-3.12,1.46-4.65,1.46-2.04,0-3.86-1.15-5.47-3.44-1.96-2.8-3.95-4.62-5.98-5.48.42-.42.93-.63,1.53-.63.76,0,2.05.59,3.88,1.78,1.82,1.19,2.99,1.78,3.5,1.78.42,0,1.12-.59,2.1-1.78.97-1.19,2.06-1.78,3.25-1.78,2.8,0,4.2,1.49,4.2,4.46Z"/></g></svg>