<?xml version="1.0" encoding="UTF-8"?><svg id="Layer_2" xmlns="http://www.w3.org/2000/svg" width="100" height="100" viewBox="0 0 100 100"><defs><style>.cls-1{fill:#f8f6da;}.cls-1,.cls-2{stroke-width:0px;}.cls-2{fill:#04070e;}</style></defs><g id="Layer_1-2"><circle class="cls-1" cx="50" cy="50" r="50"/><path class="cls-2" d="M97.69,57.06c-6.56-3.7-10.77-5.55-12.62-5.55-1.34,0-2.39,1.03-3.15,3.09-.76,2.06-2.27,3.09-4.54,3.09-.93,0-2.82-.34-5.68-1.01-1.6,2.44-2.4,4-2.4,4.67,0,.93.69,2.02,2.06,3.28,1.37,1.26,2.54,1.89,3.48,1.89.6,0,1.42-.12,2.45-.38,1.03-.25,1.72-.38,2.06-.38,1.03,0,1.55,1.89,1.55,5.68s-.84,9.17-2.52,16.65c-2.19-8.58-4.5-12.87-6.94-12.87-.34,0-1.03.25-2.08.76-1.05.5-1.83.75-2.33.75-2.44,0-4.62-2.23-6.56-6.69-3.87.59-5.8,2.57-5.8,5.93,0,1.68.78,3.03,2.34,4.04,1.55,1.01,2.33,1.73,2.33,2.14,0,2.27-3.32,5.76-9.97,10.47-3.53,2.52-5.97,4.29-7.32,5.3,1.17-1.51,2.35-3.49,3.53-5.93,1.34-2.78,2.02-4.92,2.02-6.44,0-.84-.97-2.02-2.9-3.53-1.94-1.51-2.9-3.11-2.9-4.79,0-1.43.5-3.19,1.51-5.3-1.09-1.26-2.39-1.89-3.91-1.89-3.37,0-5.04,1.1-5.04,3.28,0-1.51,0-.38,0,3.41.08,2.78-2.02,4.16-6.31,4.16-3.28,0-8.79-.76-16.53-2.27,8.75-2.19,13.12-4.71,13.12-7.57,0,.34-.17-.67-.5-3.03-.34-2.61,1.51-4.96,5.55-7.06-.76-3.87-2.77-5.8-6.06-5.8-.5,0-1.43.88-2.78,2.65-1.35,1.77-2.61,2.65-3.78,2.65-2.02,0-4.63-2.19-7.82-6.56-1.52-2.18-3.83-5.42-6.94-9.71,1.93,1.01,3.87,2.02,5.8,3.03,2.52,1.18,4.54,1.77,6.06,1.77,1.18,0,2.33-1.03,3.47-3.09,1.13-2.06,2.63-3.09,4.48-3.09.25,0,1.94.5,5.05,1.52,1.6-2.44,2.4-4.25,2.4-5.43,0-1.01-.61-2.17-1.83-3.47-1.22-1.3-2.33-1.95-3.34-1.95-.42,0-1.07.12-1.96.38-.88.25-1.53.38-1.95.38-1.52,0-2.27-1.89-2.27-5.68,0-1.01.97-6.77,2.9-17.29-.09,1.26.46,3.62,1.64,7.06,1.43,4.21,3.11,6.31,5.05,6.31.33,0,1.01-.25,2.02-.76,1.01-.5,1.81-.75,2.4-.75,1.93,0,3.53,1.09,4.79,3.28l1.46,2.63c.28.5.84.79,1.41.7,1.34-.19,2.49-.8,3.44-1.82,1.18-1.26,1.77-2.78,1.77-4.54s-.78-3.26-2.33-4.23c-1.56-.97-2.34-1.7-2.34-2.21,0-1.77,2.78-4.75,8.33-8.96,4.46-3.36,7.36-5.34,8.71-5.93-3.62,4.88-5.43,8.45-5.43,10.72,0,1.18.71,2.44,2.14,3.79,1.77,1.6,2.78,2.73,3.03,3.41.84,1.94.76,4.59-.25,7.95,2.27,1.6,3.99,2.4,5.17,2.4,2.44,0,3.66-1.26,3.66-3.79,0-.25-.11-1.05-.31-2.4-.21-1.34-.27-2.1-.19-2.27.34-1.18,2.65-1.77,6.94-1.77,2.69,0,8.28.76,16.78,2.27-1.85.5-4.63,1.26-8.33,2.27-3.37,1.01-5.05,2.14-5.05,3.41,0,.59.21,1.6.63,3.03.42,1.43.63,2.48.63,3.16,0,1.18-.76,2.27-2.27,3.28l-4.29,3.03c1.01,1.85,1.68,2.95,2.02,3.28.84,1.01,1.97,1.51,3.41,1.51,1.01,0,1.93-.88,2.78-2.65.84-1.77,2.19-2.65,4.04-2.65,2.27,0,4.84,2.1,7.7,6.31,1.6,2.35,4.08,5.93,7.44,10.72ZM69.68,49.75c0-5.38-1.98-10.05-5.93-14.01-3.95-3.95-8.62-5.93-14-5.93s-10.18,1.96-14.13,5.87c-3.95,3.91-5.97,8.6-6.05,14.07-.09,5.38,1.91,10.03,5.99,13.94,4.08,3.91,8.81,5.87,14.19,5.87,5.72,0,10.49-1.87,14.32-5.62,3.83-3.74,5.7-8.47,5.62-14.19ZM67.79,49.75c0,5.13-1.72,9.38-5.17,12.74-3.45,3.37-7.74,5.05-12.87,5.05s-9.21-1.72-12.74-5.17c-3.53-3.45-5.3-7.65-5.3-12.62s1.79-9.06,5.36-12.55c3.58-3.49,7.8-5.24,12.68-5.24s9.1,1.77,12.68,5.3c3.57,3.53,5.36,7.7,5.36,12.49Z"/></g></svg>