<?xml version="1.0" encoding="UTF-8"?><svg id="Layer_2" xmlns="http://www.w3.org/2000/svg" width="100" height="100" viewBox="0 0 100 100"><defs><style>.cls-1{fill:#c2b7ae;}.cls-1,.cls-2{stroke-width:0px;}.cls-2{fill:#04070e;}</style></defs><g id="Layer_1-2"><path class="cls-1" d="M100,50c0,27.62-22.39,50-50,50S0,77.61,0,50,22.39,0,50,0s50,22.38,50,50Z"/><path class="cls-2" d="M90.7,48.62c0,5.52-2.01,9.28-6.02,11.29-1.17.59-4.85,1.38-11.04,2.38-4.01.67-6.02,2.22-6.02,4.64v10.16c0,.42.12,1.71.37,3.89l.38,4.01c0,1.25-.29,3.3-.88,6.14-1.59.33-3.43.71-5.52,1.13-.67-2.51-1-4.22-1-5.14,0-.42.11-1.04.31-1.88.21-.83.32-1.46.32-1.88,0-.58-.52-2.21-1.56-4.89h-1.95c-.26.42-.34.96-.26,1.63.33,1.42.46,2.63.38,3.64-1.42,1-3.39,2.34-5.89,4.01-.59-.17-.79-.25-.63-.25v-8.9c-.16-.42-.58-.58-1.25-.5h-1.5l-1.5,11.79c-1.17.08-2.59.08-4.26,0-.59-2.76-1.63-6.85-3.13-12.29h-1c-.92,2.93-1.42,4.52-1.51,4.77,0,.33.1.98.31,1.94.21.96.31,1.61.31,1.94,0,.25-.08.88-.25,1.88l-.38,3.01c-.17.17-.38.25-.63.25-2.51,0-4.18-.63-5.02-1.88-.84-1.26-1.17-3.01-1-5.27l1-15.05c0-.25.08-.59.25-1,.16-.42.25-.71.25-.88,0-.67-.71-2.01-2.13-4.01-.25-.08-1.55-.38-3.89-.88-1.42-.33-4.22-.92-8.4-1.76-5.77-1.08-8.65-5.72-8.65-13.92,0-12.21,5.02-22.37,15.05-30.47.41,2.26,1.13,5.27,2.13,9.03.75.17,2.38.54,4.89,1.13.5.17,3.05,1.09,7.65,2.76-2.34-1.42-5.39-3.72-9.16-6.9-1.42-1.67-2.13-4.47-2.13-8.4,0-.92,1.59-2.01,4.77-3.26,2.84-1.17,4.97-1.84,6.4-2.01,4.51-.58,7.98-.88,10.41-.88,10.45,0,18.89,2.68,25.33,8.03-2.09,2.43-5.68,5.01-10.78,7.77,2.01.08,4.93-.71,8.78-2.38,3.84-1.67,5.47-2.51,4.89-2.51.67,0,2.01,1.34,4.01,4.01,1.5,2.01,2.71,3.81,3.64,5.39,2.67,4.77,4.47,9.91,5.39,15.43,0,1.93.04,3.3.12,4.14v1ZM42.66,50.88c0-3.59-1.57-7-4.7-10.22-3.14-3.22-6.5-4.83-10.1-4.83-3.18,0-5.98,1.35-8.4,4.04-2.43,2.69-3.64,5.68-3.64,8.96,0,2.86,1.38,4.71,4.14,5.55,1.76.51,4.22.8,7.4.88h6.9c5.6.08,8.4-1.38,8.4-4.39ZM56.33,66.43v-3.89c-.58-1.09-1.17-2.21-1.75-3.39-.5-1.67-1.42-4.01-2.76-7.03l-1.38,14.67c0,1.17-.25,1.76-.75,1.76-.33,0-.58-.08-.75-.25-.59-8.86-.88-12.71-.88-11.54v-4.39c-.17-.25-.37-.38-.62-.38-2.84,2.93-4.26,7.65-4.26,14.17,0,3.6.33,5.81,1,6.65.67-.17,1.42-.46,2.26-.88.33-.17,1.29-.25,2.89-.25s3.51.5,5.77,1.5c.84,0,1.25-2.26,1.25-6.77ZM84.68,48.96c0-3.37-1.25-6.38-3.76-9.03-2.51-2.65-5.39-3.97-8.65-3.97-3.51,0-6.79,1.61-9.85,4.83-3.05,3.22-4.58,6.58-4.58,10.1,0,2.93,1.42,4.39,4.26,4.39h14.42c5.43-.08,8.15-2.19,8.15-6.31Z"/></g></svg>